<?xml version="1.0" encoding="utf-8" standalone="no"?>
<!DOCTYPE svg PUBLIC "-//W3C//DTD SVG 1.1//EN"
  "http://www.w3.org/Graphics/SVG/1.1/DTD/svg11.dtd">
<svg xmlns:xlink="http://www.w3.org/1999/xlink" width="1080pt" height="360pt" viewBox="0 0 1080 360" xmlns="http://www.w3.org/2000/svg" version="1.1">
 <metadata>
  <rdf:RDF xmlns:dc="http://purl.org/dc/elements/1.1/" xmlns:cc="http://creativecommons.org/ns#" xmlns:rdf="http://www.w3.org/1999/02/22-rdf-syntax-ns#">
   <cc:Work>
    <dc:type rdf:resource="http://purl.org/dc/dcmitype/StillImage"/>
    <dc:date>2025-07-23T10:13:25.153108</dc:date>
    <dc:format>image/svg+xml</dc:format>
    <dc:creator>
     <cc:Agent>
      <dc:title>Matplotlib v3.7.2, https://matplotlib.org/</dc:title>
     </cc:Agent>
    </dc:creator>
   </cc:Work>
  </rdf:RDF>
 </metadata>
 <defs>
  <style type="text/css">*{stroke-linejoin: round; stroke-linecap: butt}</style>
 </defs>
 <g id="figure_1">
  <g id="patch_1">
   <path d="M 0 360 
L 1080 360 
L 1080 0 
L 0 0 
z
" style="fill: #ffffff"/>
  </g>
  <g id="axes_1">
   <g id="patch_2">
    <path d="M 44.66 318.04 
L 365.786667 318.04 
L 365.786667 26.16 
L 44.66 26.16 
z
" style="fill: #ffffff"/>
   </g>
   <g id="patch_3">
    <path d="M 59.256667 318.04 
L 80.996383 318.04 
L 80.996383 40.059048 
L 59.256667 40.059048 
z
" clip-path="url(#p1feefc2ffa)" style="fill: #1f77b4"/>
   </g>
   <g id="patch_4">
    <path d="M 121.370142 318.04 
L 143.109858 318.04 
L 143.109858 101.832593 
L 121.370142 101.832593 
z
" clip-path="url(#p1feefc2ffa)" style="fill: #1f77b4"/>
   </g>
   <g id="patch_5">
    <path d="M 183.483617 318.04 
L 205.223333 318.04 
L 205.223333 217.657989 
L 183.483617 217.657989 
z
" clip-path="url(#p1feefc2ffa)" style="fill: #1f77b4"/>
   </g>
   <g id="patch_6">
    <path d="M 245.597092 318.04 
L 267.336809 318.04 
L 267.336809 248.544762 
L 245.597092 248.544762 
z
" clip-path="url(#p1feefc2ffa)" style="fill: #1f77b4"/>
   </g>
   <g id="patch_7">
    <path d="M 307.710567 318.04 
L 329.450284 318.04 
L 329.450284 256.266455 
L 307.710567 256.266455 
z
" clip-path="url(#p1feefc2ffa)" style="fill: #1f77b4"/>
   </g>
   <g id="patch_8">
    <path d="M 80.996383 318.04 
L 102.736099 318.04 
L 102.736099 225.379683 
L 80.996383 225.379683 
z
" clip-path="url(#p1feefc2ffa)" style="fill: #ff7f0e"/>
   </g>
   <g id="patch_9">
    <path d="M 143.109858 318.04 
L 164.849574 318.04 
L 164.849574 171.327831 
L 143.109858 171.327831 
z
" clip-path="url(#p1feefc2ffa)" style="fill: #ff7f0e"/>
   </g>
   <g id="patch_10">
    <path d="M 205.223333 318.04 
L 226.96305 318.04 
L 226.96305 263.988148 
L 205.223333 263.988148 
z
" clip-path="url(#p1feefc2ffa)" style="fill: #ff7f0e"/>
   </g>
   <g id="patch_11">
    <path d="M 267.336809 318.04 
L 289.076525 318.04 
L 289.076525 233.101376 
L 267.336809 233.101376 
z
" clip-path="url(#p1feefc2ffa)" style="fill: #ff7f0e"/>
   </g>
   <g id="patch_12">
    <path d="M 329.450284 318.04 
L 351.19 318.04 
L 351.19 263.988148 
L 329.450284 263.988148 
z
" clip-path="url(#p1feefc2ffa)" style="fill: #ff7f0e"/>
   </g>
   <g id="matplotlib.axis_1">
    <g id="xtick_1">
     <g id="line2d_1">
      <defs>
       <path id="m0dd4cd7492" d="M 0 0 
L 0 3.5 
" style="stroke: #000000; stroke-width: 0.8"/>
      </defs>
      <g>
       <use xlink:href="#m0dd4cd7492" x="80.996383" y="318.04" style="stroke: #000000; stroke-width: 0.8"/>
      </g>
     </g>
     <g id="text_1">
      <!-- 1 -->
      <g transform="translate(77.815133 332.638438) scale(0.1 -0.1)">
       <defs>
        <path id="DejaVuSans-31" d="M 794 531 
L 1825 531 
L 1825 4091 
L 703 3866 
L 703 4441 
L 1819 4666 
L 2450 4666 
L 2450 531 
L 3481 531 
L 3481 0 
L 794 0 
L 794 531 
z
" transform="scale(0.015625)"/>
       </defs>
       <use xlink:href="#DejaVuSans-31"/>
      </g>
     </g>
    </g>
    <g id="xtick_2">
     <g id="line2d_2">
      <g>
       <use xlink:href="#m0dd4cd7492" x="143.109858" y="318.04" style="stroke: #000000; stroke-width: 0.8"/>
      </g>
     </g>
     <g id="text_2">
      <!-- 2 -->
      <g transform="translate(139.928608 332.638438) scale(0.1 -0.1)">
       <defs>
        <path id="DejaVuSans-32" d="M 1228 531 
L 3431 531 
L 3431 0 
L 469 0 
L 469 531 
Q 828 903 1448 1529 
Q 2069 2156 2228 2338 
Q 2531 2678 2651 2914 
Q 2772 3150 2772 3378 
Q 2772 3750 2511 3984 
Q 2250 4219 1831 4219 
Q 1534 4219 1204 4116 
Q 875 4013 500 3803 
L 500 4441 
Q 881 4594 1212 4672 
Q 1544 4750 1819 4750 
Q 2544 4750 2975 4387 
Q 3406 4025 3406 3419 
Q 3406 3131 3298 2873 
Q 3191 2616 2906 2266 
Q 2828 2175 2409 1742 
Q 1991 1309 1228 531 
z
" transform="scale(0.015625)"/>
       </defs>
       <use xlink:href="#DejaVuSans-32"/>
      </g>
     </g>
    </g>
    <g id="xtick_3">
     <g id="line2d_3">
      <g>
       <use xlink:href="#m0dd4cd7492" x="205.223333" y="318.04" style="stroke: #000000; stroke-width: 0.8"/>
      </g>
     </g>
     <g id="text_3">
      <!-- 3 -->
      <g transform="translate(202.042083 332.638438) scale(0.1 -0.1)">
       <defs>
        <path id="DejaVuSans-33" d="M 2597 2516 
Q 3050 2419 3304 2112 
Q 3559 1806 3559 1356 
Q 3559 666 3084 287 
Q 2609 -91 1734 -91 
Q 1441 -91 1130 -33 
Q 819 25 488 141 
L 488 750 
Q 750 597 1062 519 
Q 1375 441 1716 441 
Q 2309 441 2620 675 
Q 2931 909 2931 1356 
Q 2931 1769 2642 2001 
Q 2353 2234 1838 2234 
L 1294 2234 
L 1294 2753 
L 1863 2753 
Q 2328 2753 2575 2939 
Q 2822 3125 2822 3475 
Q 2822 3834 2567 4026 
Q 2313 4219 1838 4219 
Q 1578 4219 1281 4162 
Q 984 4106 628 3988 
L 628 4550 
Q 988 4650 1302 4700 
Q 1616 4750 1894 4750 
Q 2613 4750 3031 4423 
Q 3450 4097 3450 3541 
Q 3450 3153 3228 2886 
Q 3006 2619 2597 2516 
z
" transform="scale(0.015625)"/>
       </defs>
       <use xlink:href="#DejaVuSans-33"/>
      </g>
     </g>
    </g>
    <g id="xtick_4">
     <g id="line2d_4">
      <g>
       <use xlink:href="#m0dd4cd7492" x="267.336809" y="318.04" style="stroke: #000000; stroke-width: 0.8"/>
      </g>
     </g>
     <g id="text_4">
      <!-- 4 -->
      <g transform="translate(264.155559 332.638438) scale(0.1 -0.1)">
       <defs>
        <path id="DejaVuSans-34" d="M 2419 4116 
L 825 1625 
L 2419 1625 
L 2419 4116 
z
M 2253 4666 
L 3047 4666 
L 3047 1625 
L 3713 1625 
L 3713 1100 
L 3047 1100 
L 3047 0 
L 2419 0 
L 2419 1100 
L 313 1100 
L 313 1709 
L 2253 4666 
z
" transform="scale(0.015625)"/>
       </defs>
       <use xlink:href="#DejaVuSans-34"/>
      </g>
     </g>
    </g>
    <g id="xtick_5">
     <g id="line2d_5">
      <g>
       <use xlink:href="#m0dd4cd7492" x="329.450284" y="318.04" style="stroke: #000000; stroke-width: 0.8"/>
      </g>
     </g>
     <g id="text_5">
      <!-- 5 -->
      <g transform="translate(326.269034 332.638438) scale(0.1 -0.1)">
       <defs>
        <path id="DejaVuSans-35" d="M 691 4666 
L 3169 4666 
L 3169 4134 
L 1269 4134 
L 1269 2991 
Q 1406 3038 1543 3061 
Q 1681 3084 1819 3084 
Q 2600 3084 3056 2656 
Q 3513 2228 3513 1497 
Q 3513 744 3044 326 
Q 2575 -91 1722 -91 
Q 1428 -91 1123 -41 
Q 819 9 494 109 
L 494 744 
Q 775 591 1075 516 
Q 1375 441 1709 441 
Q 2250 441 2565 725 
Q 2881 1009 2881 1497 
Q 2881 1984 2565 2268 
Q 2250 2553 1709 2553 
Q 1456 2553 1204 2497 
Q 953 2441 691 2322 
L 691 4666 
z
" transform="scale(0.015625)"/>
       </defs>
       <use xlink:href="#DejaVuSans-35"/>
      </g>
     </g>
    </g>
   </g>
   <g id="matplotlib.axis_2">
    <g id="ytick_1">
     <g id="line2d_6">
      <defs>
       <path id="me6f564d7d5" d="M 0 0 
L -3.5 0 
" style="stroke: #000000; stroke-width: 0.8"/>
      </defs>
      <g>
       <use xlink:href="#me6f564d7d5" x="44.66" y="318.04" style="stroke: #000000; stroke-width: 0.8"/>
      </g>
     </g>
     <g id="text_6">
      <!-- 0 -->
      <g transform="translate(31.2975 321.839219) scale(0.1 -0.1)">
       <defs>
        <path id="DejaVuSans-30" d="M 2034 4250 
Q 1547 4250 1301 3770 
Q 1056 3291 1056 2328 
Q 1056 1369 1301 889 
Q 1547 409 2034 409 
Q 2525 409 2770 889 
Q 3016 1369 3016 2328 
Q 3016 3291 2770 3770 
Q 2525 4250 2034 4250 
z
M 2034 4750 
Q 2819 4750 3233 4129 
Q 3647 3509 3647 2328 
Q 3647 1150 3233 529 
Q 2819 -91 2034 -91 
Q 1250 -91 836 529 
Q 422 1150 422 2328 
Q 422 3509 836 4129 
Q 1250 4750 2034 4750 
z
" transform="scale(0.015625)"/>
       </defs>
       <use xlink:href="#DejaVuSans-30"/>
      </g>
     </g>
    </g>
    <g id="ytick_2">
     <g id="line2d_7">
      <g>
       <use xlink:href="#me6f564d7d5" x="44.66" y="279.431534" style="stroke: #000000; stroke-width: 0.8"/>
      </g>
     </g>
     <g id="text_7">
      <!-- 5 -->
      <g transform="translate(31.2975 283.230753) scale(0.1 -0.1)">
       <use xlink:href="#DejaVuSans-35"/>
      </g>
     </g>
    </g>
    <g id="ytick_3">
     <g id="line2d_8">
      <g>
       <use xlink:href="#me6f564d7d5" x="44.66" y="240.823069" style="stroke: #000000; stroke-width: 0.8"/>
      </g>
     </g>
     <g id="text_8">
      <!-- 10 -->
      <g transform="translate(24.935 244.622288) scale(0.1 -0.1)">
       <use xlink:href="#DejaVuSans-31"/>
       <use xlink:href="#DejaVuSans-30" x="63.623047"/>
      </g>
     </g>
    </g>
    <g id="ytick_4">
     <g id="line2d_9">
      <g>
       <use xlink:href="#me6f564d7d5" x="44.66" y="202.214603" style="stroke: #000000; stroke-width: 0.8"/>
      </g>
     </g>
     <g id="text_9">
      <!-- 15 -->
      <g transform="translate(24.935 206.013822) scale(0.1 -0.1)">
       <use xlink:href="#DejaVuSans-31"/>
       <use xlink:href="#DejaVuSans-35" x="63.623047"/>
      </g>
     </g>
    </g>
    <g id="ytick_5">
     <g id="line2d_10">
      <g>
       <use xlink:href="#me6f564d7d5" x="44.66" y="163.606138" style="stroke: #000000; stroke-width: 0.8"/>
      </g>
     </g>
     <g id="text_10">
      <!-- 20 -->
      <g transform="translate(24.935 167.405356) scale(0.1 -0.1)">
       <use xlink:href="#DejaVuSans-32"/>
       <use xlink:href="#DejaVuSans-30" x="63.623047"/>
      </g>
     </g>
    </g>
    <g id="ytick_6">
     <g id="line2d_11">
      <g>
       <use xlink:href="#me6f564d7d5" x="44.66" y="124.997672" style="stroke: #000000; stroke-width: 0.8"/>
      </g>
     </g>
     <g id="text_11">
      <!-- 25 -->
      <g transform="translate(24.935 128.796891) scale(0.1 -0.1)">
       <use xlink:href="#DejaVuSans-32"/>
       <use xlink:href="#DejaVuSans-35" x="63.623047"/>
      </g>
     </g>
    </g>
    <g id="ytick_7">
     <g id="line2d_12">
      <g>
       <use xlink:href="#me6f564d7d5" x="44.66" y="86.389206" style="stroke: #000000; stroke-width: 0.8"/>
      </g>
     </g>
     <g id="text_12">
      <!-- 30 -->
      <g transform="translate(24.935 90.188425) scale(0.1 -0.1)">
       <use xlink:href="#DejaVuSans-33"/>
       <use xlink:href="#DejaVuSans-30" x="63.623047"/>
      </g>
     </g>
    </g>
    <g id="ytick_8">
     <g id="line2d_13">
      <g>
       <use xlink:href="#me6f564d7d5" x="44.66" y="47.780741" style="stroke: #000000; stroke-width: 0.8"/>
      </g>
     </g>
     <g id="text_13">
      <!-- 35 -->
      <g transform="translate(24.935 51.579959) scale(0.1 -0.1)">
       <use xlink:href="#DejaVuSans-33"/>
       <use xlink:href="#DejaVuSans-35" x="63.623047"/>
      </g>
     </g>
    </g>
    <g id="text_14">
     <!-- Number of Differences -->
     <g transform="translate(18.855312 228.638281) rotate(-90) scale(0.1 -0.1)">
      <defs>
       <path id="DejaVuSans-4e" d="M 628 4666 
L 1478 4666 
L 3547 763 
L 3547 4666 
L 4159 4666 
L 4159 0 
L 3309 0 
L 1241 3903 
L 1241 0 
L 628 0 
L 628 4666 
z
" transform="scale(0.015625)"/>
       <path id="DejaVuSans-75" d="M 544 1381 
L 544 3500 
L 1119 3500 
L 1119 1403 
Q 1119 906 1312 657 
Q 1506 409 1894 409 
Q 2359 409 2629 706 
Q 2900 1003 2900 1516 
L 2900 3500 
L 3475 3500 
L 3475 0 
L 2900 0 
L 2900 538 
Q 2691 219 2414 64 
Q 2138 -91 1772 -91 
Q 1169 -91 856 284 
Q 544 659 544 1381 
z
M 1991 3584 
L 1991 3584 
z
" transform="scale(0.015625)"/>
       <path id="DejaVuSans-6d" d="M 3328 2828 
Q 3544 3216 3844 3400 
Q 4144 3584 4550 3584 
Q 5097 3584 5394 3201 
Q 5691 2819 5691 2113 
L 5691 0 
L 5113 0 
L 5113 2094 
Q 5113 2597 4934 2840 
Q 4756 3084 4391 3084 
Q 3944 3084 3684 2787 
Q 3425 2491 3425 1978 
L 3425 0 
L 2847 0 
L 2847 2094 
Q 2847 2600 2669 2842 
Q 2491 3084 2119 3084 
Q 1678 3084 1418 2786 
Q 1159 2488 1159 1978 
L 1159 0 
L 581 0 
L 581 3500 
L 1159 3500 
L 1159 2956 
Q 1356 3278 1631 3431 
Q 1906 3584 2284 3584 
Q 2666 3584 2933 3390 
Q 3200 3197 3328 2828 
z
" transform="scale(0.015625)"/>
       <path id="DejaVuSans-62" d="M 3116 1747 
Q 3116 2381 2855 2742 
Q 2594 3103 2138 3103 
Q 1681 3103 1420 2742 
Q 1159 2381 1159 1747 
Q 1159 1113 1420 752 
Q 1681 391 2138 391 
Q 2594 391 2855 752 
Q 3116 1113 3116 1747 
z
M 1159 2969 
Q 1341 3281 1617 3432 
Q 1894 3584 2278 3584 
Q 2916 3584 3314 3078 
Q 3713 2572 3713 1747 
Q 3713 922 3314 415 
Q 2916 -91 2278 -91 
Q 1894 -91 1617 61 
Q 1341 213 1159 525 
L 1159 0 
L 581 0 
L 581 4863 
L 1159 4863 
L 1159 2969 
z
" transform="scale(0.015625)"/>
       <path id="DejaVuSans-65" d="M 3597 1894 
L 3597 1613 
L 953 1613 
Q 991 1019 1311 708 
Q 1631 397 2203 397 
Q 2534 397 2845 478 
Q 3156 559 3463 722 
L 3463 178 
Q 3153 47 2828 -22 
Q 2503 -91 2169 -91 
Q 1331 -91 842 396 
Q 353 884 353 1716 
Q 353 2575 817 3079 
Q 1281 3584 2069 3584 
Q 2775 3584 3186 3129 
Q 3597 2675 3597 1894 
z
M 3022 2063 
Q 3016 2534 2758 2815 
Q 2500 3097 2075 3097 
Q 1594 3097 1305 2825 
Q 1016 2553 972 2059 
L 3022 2063 
z
" transform="scale(0.015625)"/>
       <path id="DejaVuSans-72" d="M 2631 2963 
Q 2534 3019 2420 3045 
Q 2306 3072 2169 3072 
Q 1681 3072 1420 2755 
Q 1159 2438 1159 1844 
L 1159 0 
L 581 0 
L 581 3500 
L 1159 3500 
L 1159 2956 
Q 1341 3275 1631 3429 
Q 1922 3584 2338 3584 
Q 2397 3584 2469 3576 
Q 2541 3569 2628 3553 
L 2631 2963 
z
" transform="scale(0.015625)"/>
       <path id="DejaVuSans-20" transform="scale(0.015625)"/>
       <path id="DejaVuSans-6f" d="M 1959 3097 
Q 1497 3097 1228 2736 
Q 959 2375 959 1747 
Q 959 1119 1226 758 
Q 1494 397 1959 397 
Q 2419 397 2687 759 
Q 2956 1122 2956 1747 
Q 2956 2369 2687 2733 
Q 2419 3097 1959 3097 
z
M 1959 3584 
Q 2709 3584 3137 3096 
Q 3566 2609 3566 1747 
Q 3566 888 3137 398 
Q 2709 -91 1959 -91 
Q 1206 -91 779 398 
Q 353 888 353 1747 
Q 353 2609 779 3096 
Q 1206 3584 1959 3584 
z
" transform="scale(0.015625)"/>
       <path id="DejaVuSans-66" d="M 2375 4863 
L 2375 4384 
L 1825 4384 
Q 1516 4384 1395 4259 
Q 1275 4134 1275 3809 
L 1275 3500 
L 2222 3500 
L 2222 3053 
L 1275 3053 
L 1275 0 
L 697 0 
L 697 3053 
L 147 3053 
L 147 3500 
L 697 3500 
L 697 3744 
Q 697 4328 969 4595 
Q 1241 4863 1831 4863 
L 2375 4863 
z
" transform="scale(0.015625)"/>
       <path id="DejaVuSans-44" d="M 1259 4147 
L 1259 519 
L 2022 519 
Q 2988 519 3436 956 
Q 3884 1394 3884 2338 
Q 3884 3275 3436 3711 
Q 2988 4147 2022 4147 
L 1259 4147 
z
M 628 4666 
L 1925 4666 
Q 3281 4666 3915 4102 
Q 4550 3538 4550 2338 
Q 4550 1131 3912 565 
Q 3275 0 1925 0 
L 628 0 
L 628 4666 
z
" transform="scale(0.015625)"/>
       <path id="DejaVuSans-69" d="M 603 3500 
L 1178 3500 
L 1178 0 
L 603 0 
L 603 3500 
z
M 603 4863 
L 1178 4863 
L 1178 4134 
L 603 4134 
L 603 4863 
z
" transform="scale(0.015625)"/>
       <path id="DejaVuSans-6e" d="M 3513 2113 
L 3513 0 
L 2938 0 
L 2938 2094 
Q 2938 2591 2744 2837 
Q 2550 3084 2163 3084 
Q 1697 3084 1428 2787 
Q 1159 2491 1159 1978 
L 1159 0 
L 581 0 
L 581 3500 
L 1159 3500 
L 1159 2956 
Q 1366 3272 1645 3428 
Q 1925 3584 2291 3584 
Q 2894 3584 3203 3211 
Q 3513 2838 3513 2113 
z
" transform="scale(0.015625)"/>
       <path id="DejaVuSans-63" d="M 3122 3366 
L 3122 2828 
Q 2878 2963 2633 3030 
Q 2388 3097 2138 3097 
Q 1578 3097 1268 2742 
Q 959 2388 959 1747 
Q 959 1106 1268 751 
Q 1578 397 2138 397 
Q 2388 397 2633 464 
Q 2878 531 3122 666 
L 3122 134 
Q 2881 22 2623 -34 
Q 2366 -91 2075 -91 
Q 1284 -91 818 406 
Q 353 903 353 1747 
Q 353 2603 823 3093 
Q 1294 3584 2113 3584 
Q 2378 3584 2631 3529 
Q 2884 3475 3122 3366 
z
" transform="scale(0.015625)"/>
       <path id="DejaVuSans-73" d="M 2834 3397 
L 2834 2853 
Q 2591 2978 2328 3040 
Q 2066 3103 1784 3103 
Q 1356 3103 1142 2972 
Q 928 2841 928 2578 
Q 928 2378 1081 2264 
Q 1234 2150 1697 2047 
L 1894 2003 
Q 2506 1872 2764 1633 
Q 3022 1394 3022 966 
Q 3022 478 2636 193 
Q 2250 -91 1575 -91 
Q 1294 -91 989 -36 
Q 684 19 347 128 
L 347 722 
Q 666 556 975 473 
Q 1284 391 1588 391 
Q 1994 391 2212 530 
Q 2431 669 2431 922 
Q 2431 1156 2273 1281 
Q 2116 1406 1581 1522 
L 1381 1569 
Q 847 1681 609 1914 
Q 372 2147 372 2553 
Q 372 3047 722 3315 
Q 1072 3584 1716 3584 
Q 2034 3584 2315 3537 
Q 2597 3491 2834 3397 
z
" transform="scale(0.015625)"/>
      </defs>
      <use xlink:href="#DejaVuSans-4e"/>
      <use xlink:href="#DejaVuSans-75" x="74.804688"/>
      <use xlink:href="#DejaVuSans-6d" x="138.183594"/>
      <use xlink:href="#DejaVuSans-62" x="235.595703"/>
      <use xlink:href="#DejaVuSans-65" x="299.072266"/>
      <use xlink:href="#DejaVuSans-72" x="360.595703"/>
      <use xlink:href="#DejaVuSans-20" x="401.708984"/>
      <use xlink:href="#DejaVuSans-6f" x="433.496094"/>
      <use xlink:href="#DejaVuSans-66" x="494.677734"/>
      <use xlink:href="#DejaVuSans-20" x="529.882812"/>
      <use xlink:href="#DejaVuSans-44" x="561.669922"/>
      <use xlink:href="#DejaVuSans-69" x="638.671875"/>
      <use xlink:href="#DejaVuSans-66" x="666.455078"/>
      <use xlink:href="#DejaVuSans-66" x="701.660156"/>
      <use xlink:href="#DejaVuSans-65" x="736.865234"/>
      <use xlink:href="#DejaVuSans-72" x="798.388672"/>
      <use xlink:href="#DejaVuSans-65" x="837.251953"/>
      <use xlink:href="#DejaVuSans-6e" x="898.775391"/>
      <use xlink:href="#DejaVuSans-63" x="962.154297"/>
      <use xlink:href="#DejaVuSans-65" x="1017.134766"/>
      <use xlink:href="#DejaVuSans-73" x="1078.658203"/>
     </g>
    </g>
   </g>
   <g id="patch_13">
    <path d="M 44.66 318.04 
L 44.66 26.16 
" style="fill: none; stroke: #000000; stroke-width: 0.8; stroke-linejoin: miter; stroke-linecap: square"/>
   </g>
   <g id="patch_14">
    <path d="M 365.786667 318.04 
L 365.786667 26.16 
" style="fill: none; stroke: #000000; stroke-width: 0.8; stroke-linejoin: miter; stroke-linecap: square"/>
   </g>
   <g id="patch_15">
    <path d="M 44.66 318.04 
L 365.786667 318.04 
" style="fill: none; stroke: #000000; stroke-width: 0.8; stroke-linejoin: miter; stroke-linecap: square"/>
   </g>
   <g id="patch_16">
    <path d="M 44.66 26.16 
L 365.786667 26.16 
" style="fill: none; stroke: #000000; stroke-width: 0.8; stroke-linejoin: miter; stroke-linecap: square"/>
   </g>
   <g id="text_15">
    <!-- German -->
    <g transform="translate(181.197083 20.16) scale(0.12 -0.12)">
     <defs>
      <path id="DejaVuSans-47" d="M 3809 666 
L 3809 1919 
L 2778 1919 
L 2778 2438 
L 4434 2438 
L 4434 434 
Q 4069 175 3628 42 
Q 3188 -91 2688 -91 
Q 1594 -91 976 548 
Q 359 1188 359 2328 
Q 359 3472 976 4111 
Q 1594 4750 2688 4750 
Q 3144 4750 3555 4637 
Q 3966 4525 4313 4306 
L 4313 3634 
Q 3963 3931 3569 4081 
Q 3175 4231 2741 4231 
Q 1884 4231 1454 3753 
Q 1025 3275 1025 2328 
Q 1025 1384 1454 906 
Q 1884 428 2741 428 
Q 3075 428 3337 486 
Q 3600 544 3809 666 
z
" transform="scale(0.015625)"/>
      <path id="DejaVuSans-61" d="M 2194 1759 
Q 1497 1759 1228 1600 
Q 959 1441 959 1056 
Q 959 750 1161 570 
Q 1363 391 1709 391 
Q 2188 391 2477 730 
Q 2766 1069 2766 1631 
L 2766 1759 
L 2194 1759 
z
M 3341 1997 
L 3341 0 
L 2766 0 
L 2766 531 
Q 2569 213 2275 61 
Q 1981 -91 1556 -91 
Q 1019 -91 701 211 
Q 384 513 384 1019 
Q 384 1609 779 1909 
Q 1175 2209 1959 2209 
L 2766 2209 
L 2766 2266 
Q 2766 2663 2505 2880 
Q 2244 3097 1772 3097 
Q 1472 3097 1187 3025 
Q 903 2953 641 2809 
L 641 3341 
Q 956 3463 1253 3523 
Q 1550 3584 1831 3584 
Q 2591 3584 2966 3190 
Q 3341 2797 3341 1997 
z
" transform="scale(0.015625)"/>
     </defs>
     <use xlink:href="#DejaVuSans-47"/>
     <use xlink:href="#DejaVuSans-65" x="77.490234"/>
     <use xlink:href="#DejaVuSans-72" x="139.013672"/>
     <use xlink:href="#DejaVuSans-6d" x="178.376953"/>
     <use xlink:href="#DejaVuSans-61" x="275.789062"/>
     <use xlink:href="#DejaVuSans-6e" x="337.068359"/>
    </g>
   </g>
   <g id="legend_1">
    <g id="patch_17">
     <path d="M 267.413229 63.51625 
L 358.786667 63.51625 
Q 360.786667 63.51625 360.786667 61.51625 
L 360.786667 33.16 
Q 360.786667 31.16 358.786667 31.16 
L 267.413229 31.16 
Q 265.413229 31.16 265.413229 33.16 
L 265.413229 61.51625 
Q 265.413229 63.51625 267.413229 63.51625 
z
" style="fill: #ffffff; opacity: 0.8; stroke: #cccccc; stroke-linejoin: miter"/>
    </g>
    <g id="patch_18">
     <path d="M 269.413229 42.758437 
L 289.413229 42.758437 
L 289.413229 35.758437 
L 269.413229 35.758437 
z
" style="fill: #1f77b4"/>
    </g>
    <g id="text_16">
     <!-- Annotator 1 -->
     <g transform="translate(297.413229 42.758437) scale(0.1 -0.1)">
      <defs>
       <path id="DejaVuSans-41" d="M 2188 4044 
L 1331 1722 
L 3047 1722 
L 2188 4044 
z
M 1831 4666 
L 2547 4666 
L 4325 0 
L 3669 0 
L 3244 1197 
L 1141 1197 
L 716 0 
L 50 0 
L 1831 4666 
z
" transform="scale(0.015625)"/>
       <path id="DejaVuSans-74" d="M 1172 4494 
L 1172 3500 
L 2356 3500 
L 2356 3053 
L 1172 3053 
L 1172 1153 
Q 1172 725 1289 603 
Q 1406 481 1766 481 
L 2356 481 
L 2356 0 
L 1766 0 
Q 1100 0 847 248 
Q 594 497 594 1153 
L 594 3053 
L 172 3053 
L 172 3500 
L 594 3500 
L 594 4494 
L 1172 4494 
z
" transform="scale(0.015625)"/>
      </defs>
      <use xlink:href="#DejaVuSans-41"/>
      <use xlink:href="#DejaVuSans-6e" x="68.408203"/>
      <use xlink:href="#DejaVuSans-6e" x="131.787109"/>
      <use xlink:href="#DejaVuSans-6f" x="195.166016"/>
      <use xlink:href="#DejaVuSans-74" x="256.347656"/>
      <use xlink:href="#DejaVuSans-61" x="295.556641"/>
      <use xlink:href="#DejaVuSans-74" x="356.835938"/>
      <use xlink:href="#DejaVuSans-6f" x="396.044922"/>
      <use xlink:href="#DejaVuSans-72" x="457.226562"/>
      <use xlink:href="#DejaVuSans-20" x="498.339844"/>
      <use xlink:href="#DejaVuSans-31" x="530.126953"/>
     </g>
    </g>
    <g id="patch_19">
     <path d="M 269.413229 57.436562 
L 289.413229 57.436562 
L 289.413229 50.436562 
L 269.413229 50.436562 
z
" style="fill: #ff7f0e"/>
    </g>
    <g id="text_17">
     <!-- Annotator 2 -->
     <g transform="translate(297.413229 57.436562) scale(0.1 -0.1)">
      <use xlink:href="#DejaVuSans-41"/>
      <use xlink:href="#DejaVuSans-6e" x="68.408203"/>
      <use xlink:href="#DejaVuSans-6e" x="131.787109"/>
      <use xlink:href="#DejaVuSans-6f" x="195.166016"/>
      <use xlink:href="#DejaVuSans-74" x="256.347656"/>
      <use xlink:href="#DejaVuSans-61" x="295.556641"/>
      <use xlink:href="#DejaVuSans-74" x="356.835938"/>
      <use xlink:href="#DejaVuSans-6f" x="396.044922"/>
      <use xlink:href="#DejaVuSans-72" x="457.226562"/>
      <use xlink:href="#DejaVuSans-20" x="498.339844"/>
      <use xlink:href="#DejaVuSans-32" x="530.126953"/>
     </g>
    </g>
   </g>
  </g>
  <g id="axes_2">
   <g id="patch_20">
    <path d="M 396.366667 318.04 
L 717.493333 318.04 
L 717.493333 26.16 
L 396.366667 26.16 
z
" style="fill: #ffffff"/>
   </g>
   <g id="patch_21">
    <path d="M 410.963333 318.04 
L 432.70305 318.04 
L 432.70305 216.339652 
L 410.963333 216.339652 
z
" clip-path="url(#p75259f2151)" style="fill: #1f77b4"/>
   </g>
   <g id="patch_22">
    <path d="M 473.076809 318.04 
L 494.816525 318.04 
L 494.816525 243.459744 
L 473.076809 243.459744 
z
" clip-path="url(#p75259f2151)" style="fill: #1f77b4"/>
   </g>
   <g id="patch_23">
    <path d="M 535.190284 318.04 
L 556.93 318.04 
L 556.93 175.659512 
L 535.190284 175.659512 
z
" clip-path="url(#p75259f2151)" style="fill: #1f77b4"/>
   </g>
   <g id="patch_24">
    <path d="M 597.303759 318.04 
L 619.043475 318.04 
L 619.043475 128.19935 
L 597.303759 128.19935 
z
" clip-path="url(#p75259f2151)" style="fill: #1f77b4"/>
   </g>
   <g id="patch_25">
    <path d="M 659.417234 318.04 
L 681.15695 318.04 
L 681.15695 202.779605 
L 659.417234 202.779605 
z
" clip-path="url(#p75259f2151)" style="fill: #1f77b4"/>
   </g>
   <g id="patch_26">
    <path d="M 432.70305 318.04 
L 454.442766 318.04 
L 454.442766 40.059048 
L 432.70305 40.059048 
z
" clip-path="url(#p75259f2151)" style="fill: #ff7f0e"/>
   </g>
   <g id="patch_27">
    <path d="M 494.816525 318.04 
L 516.556241 318.04 
L 516.556241 46.839071 
L 494.816525 46.839071 
z
" clip-path="url(#p75259f2151)" style="fill: #ff7f0e"/>
   </g>
   <g id="patch_28">
    <path d="M 556.93 318.04 
L 578.669716 318.04 
L 578.669716 229.899698 
L 556.93 229.899698 
z
" clip-path="url(#p75259f2151)" style="fill: #ff7f0e"/>
   </g>
   <g id="patch_29">
    <path d="M 619.043475 318.04 
L 640.783191 318.04 
L 640.783191 257.019791 
L 619.043475 257.019791 
z
" clip-path="url(#p75259f2151)" style="fill: #ff7f0e"/>
   </g>
   <g id="patch_30">
    <path d="M 681.15695 318.04 
L 702.896667 318.04 
L 702.896667 202.779605 
L 681.15695 202.779605 
z
" clip-path="url(#p75259f2151)" style="fill: #ff7f0e"/>
   </g>
   <g id="matplotlib.axis_3">
    <g id="xtick_6">
     <g id="line2d_14">
      <g>
       <use xlink:href="#m0dd4cd7492" x="432.70305" y="318.04" style="stroke: #000000; stroke-width: 0.8"/>
      </g>
     </g>
     <g id="text_18">
      <!-- 1 -->
      <g transform="translate(429.5218 332.638438) scale(0.1 -0.1)">
       <use xlink:href="#DejaVuSans-31"/>
      </g>
     </g>
    </g>
    <g id="xtick_7">
     <g id="line2d_15">
      <g>
       <use xlink:href="#m0dd4cd7492" x="494.816525" y="318.04" style="stroke: #000000; stroke-width: 0.8"/>
      </g>
     </g>
     <g id="text_19">
      <!-- 2 -->
      <g transform="translate(491.635275 332.638438) scale(0.1 -0.1)">
       <use xlink:href="#DejaVuSans-32"/>
      </g>
     </g>
    </g>
    <g id="xtick_8">
     <g id="line2d_16">
      <g>
       <use xlink:href="#m0dd4cd7492" x="556.93" y="318.04" style="stroke: #000000; stroke-width: 0.8"/>
      </g>
     </g>
     <g id="text_20">
      <!-- 3 -->
      <g transform="translate(553.74875 332.638438) scale(0.1 -0.1)">
       <use xlink:href="#DejaVuSans-33"/>
      </g>
     </g>
    </g>
    <g id="xtick_9">
     <g id="line2d_17">
      <g>
       <use xlink:href="#m0dd4cd7492" x="619.043475" y="318.04" style="stroke: #000000; stroke-width: 0.8"/>
      </g>
     </g>
     <g id="text_21">
      <!-- 4 -->
      <g transform="translate(615.862225 332.638438) scale(0.1 -0.1)">
       <use xlink:href="#DejaVuSans-34"/>
      </g>
     </g>
    </g>
    <g id="xtick_10">
     <g id="line2d_18">
      <g>
       <use xlink:href="#m0dd4cd7492" x="681.15695" y="318.04" style="stroke: #000000; stroke-width: 0.8"/>
      </g>
     </g>
     <g id="text_22">
      <!-- 5 -->
      <g transform="translate(677.9757 332.638438) scale(0.1 -0.1)">
       <use xlink:href="#DejaVuSans-35"/>
      </g>
     </g>
    </g>
    <g id="text_23">
     <!-- Difference Labels -->
     <g transform="translate(513.396406 346.316563) scale(0.1 -0.1)">
      <defs>
       <path id="DejaVuSans-4c" d="M 628 4666 
L 1259 4666 
L 1259 531 
L 3531 531 
L 3531 0 
L 628 0 
L 628 4666 
z
" transform="scale(0.015625)"/>
       <path id="DejaVuSans-6c" d="M 603 4863 
L 1178 4863 
L 1178 0 
L 603 0 
L 603 4863 
z
" transform="scale(0.015625)"/>
      </defs>
      <use xlink:href="#DejaVuSans-44"/>
      <use xlink:href="#DejaVuSans-69" x="77.001953"/>
      <use xlink:href="#DejaVuSans-66" x="104.785156"/>
      <use xlink:href="#DejaVuSans-66" x="139.990234"/>
      <use xlink:href="#DejaVuSans-65" x="175.195312"/>
      <use xlink:href="#DejaVuSans-72" x="236.71875"/>
      <use xlink:href="#DejaVuSans-65" x="275.582031"/>
      <use xlink:href="#DejaVuSans-6e" x="337.105469"/>
      <use xlink:href="#DejaVuSans-63" x="400.484375"/>
      <use xlink:href="#DejaVuSans-65" x="455.464844"/>
      <use xlink:href="#DejaVuSans-20" x="516.988281"/>
      <use xlink:href="#DejaVuSans-4c" x="548.775391"/>
      <use xlink:href="#DejaVuSans-61" x="604.488281"/>
      <use xlink:href="#DejaVuSans-62" x="665.767578"/>
      <use xlink:href="#DejaVuSans-65" x="729.244141"/>
      <use xlink:href="#DejaVuSans-6c" x="790.767578"/>
      <use xlink:href="#DejaVuSans-73" x="818.550781"/>
     </g>
    </g>
   </g>
   <g id="matplotlib.axis_4">
    <g id="ytick_9">
     <g id="line2d_19">
      <g>
       <use xlink:href="#me6f564d7d5" x="396.366667" y="318.04" style="stroke: #000000; stroke-width: 0.8"/>
      </g>
     </g>
     <g id="text_24">
      <!-- 0 -->
      <g transform="translate(383.004167 321.839219) scale(0.1 -0.1)">
       <use xlink:href="#DejaVuSans-30"/>
      </g>
     </g>
    </g>
    <g id="ytick_10">
     <g id="line2d_20">
      <g>
       <use xlink:href="#me6f564d7d5" x="396.366667" y="284.139884" style="stroke: #000000; stroke-width: 0.8"/>
      </g>
     </g>
     <g id="text_25">
      <!-- 5 -->
      <g transform="translate(383.004167 287.939103) scale(0.1 -0.1)">
       <use xlink:href="#DejaVuSans-35"/>
      </g>
     </g>
    </g>
    <g id="ytick_11">
     <g id="line2d_21">
      <g>
       <use xlink:href="#me6f564d7d5" x="396.366667" y="250.239768" style="stroke: #000000; stroke-width: 0.8"/>
      </g>
     </g>
     <g id="text_26">
      <!-- 10 -->
      <g transform="translate(376.641667 254.038986) scale(0.1 -0.1)">
       <use xlink:href="#DejaVuSans-31"/>
       <use xlink:href="#DejaVuSans-30" x="63.623047"/>
      </g>
     </g>
    </g>
    <g id="ytick_12">
     <g id="line2d_22">
      <g>
       <use xlink:href="#me6f564d7d5" x="396.366667" y="216.339652" style="stroke: #000000; stroke-width: 0.8"/>
      </g>
     </g>
     <g id="text_27">
      <!-- 15 -->
      <g transform="translate(376.641667 220.13887) scale(0.1 -0.1)">
       <use xlink:href="#DejaVuSans-31"/>
       <use xlink:href="#DejaVuSans-35" x="63.623047"/>
      </g>
     </g>
    </g>
    <g id="ytick_13">
     <g id="line2d_23">
      <g>
       <use xlink:href="#me6f564d7d5" x="396.366667" y="182.439535" style="stroke: #000000; stroke-width: 0.8"/>
      </g>
     </g>
     <g id="text_28">
      <!-- 20 -->
      <g transform="translate(376.641667 186.238754) scale(0.1 -0.1)">
       <use xlink:href="#DejaVuSans-32"/>
       <use xlink:href="#DejaVuSans-30" x="63.623047"/>
      </g>
     </g>
    </g>
    <g id="ytick_14">
     <g id="line2d_24">
      <g>
       <use xlink:href="#me6f564d7d5" x="396.366667" y="148.539419" style="stroke: #000000; stroke-width: 0.8"/>
      </g>
     </g>
     <g id="text_29">
      <!-- 25 -->
      <g transform="translate(376.641667 152.338638) scale(0.1 -0.1)">
       <use xlink:href="#DejaVuSans-32"/>
       <use xlink:href="#DejaVuSans-35" x="63.623047"/>
      </g>
     </g>
    </g>
    <g id="ytick_15">
     <g id="line2d_25">
      <g>
       <use xlink:href="#me6f564d7d5" x="396.366667" y="114.639303" style="stroke: #000000; stroke-width: 0.8"/>
      </g>
     </g>
     <g id="text_30">
      <!-- 30 -->
      <g transform="translate(376.641667 118.438522) scale(0.1 -0.1)">
       <use xlink:href="#DejaVuSans-33"/>
       <use xlink:href="#DejaVuSans-30" x="63.623047"/>
      </g>
     </g>
    </g>
    <g id="ytick_16">
     <g id="line2d_26">
      <g>
       <use xlink:href="#me6f564d7d5" x="396.366667" y="80.739187" style="stroke: #000000; stroke-width: 0.8"/>
      </g>
     </g>
     <g id="text_31">
      <!-- 35 -->
      <g transform="translate(376.641667 84.538406) scale(0.1 -0.1)">
       <use xlink:href="#DejaVuSans-33"/>
       <use xlink:href="#DejaVuSans-35" x="63.623047"/>
      </g>
     </g>
    </g>
    <g id="ytick_17">
     <g id="line2d_27">
      <g>
       <use xlink:href="#me6f564d7d5" x="396.366667" y="46.839071" style="stroke: #000000; stroke-width: 0.8"/>
      </g>
     </g>
     <g id="text_32">
      <!-- 40 -->
      <g transform="translate(376.641667 50.63829) scale(0.1 -0.1)">
       <use xlink:href="#DejaVuSans-34"/>
       <use xlink:href="#DejaVuSans-30" x="63.623047"/>
      </g>
     </g>
    </g>
   </g>
   <g id="patch_31">
    <path d="M 396.366667 318.04 
L 396.366667 26.16 
" style="fill: none; stroke: #000000; stroke-width: 0.8; stroke-linejoin: miter; stroke-linecap: square"/>
   </g>
   <g id="patch_32">
    <path d="M 717.493333 318.04 
L 717.493333 26.16 
" style="fill: none; stroke: #000000; stroke-width: 0.8; stroke-linejoin: miter; stroke-linecap: square"/>
   </g>
   <g id="patch_33">
    <path d="M 396.366667 318.04 
L 717.493333 318.04 
" style="fill: none; stroke: #000000; stroke-width: 0.8; stroke-linejoin: miter; stroke-linecap: square"/>
   </g>
   <g id="patch_34">
    <path d="M 396.366667 26.16 
L 717.493333 26.16 
" style="fill: none; stroke: #000000; stroke-width: 0.8; stroke-linejoin: miter; stroke-linecap: square"/>
   </g>
   <g id="text_33">
    <!-- French -->
    <g transform="translate(536.986563 20.16) scale(0.12 -0.12)">
     <defs>
      <path id="DejaVuSans-46" d="M 628 4666 
L 3309 4666 
L 3309 4134 
L 1259 4134 
L 1259 2759 
L 3109 2759 
L 3109 2228 
L 1259 2228 
L 1259 0 
L 628 0 
L 628 4666 
z
" transform="scale(0.015625)"/>
      <path id="DejaVuSans-68" d="M 3513 2113 
L 3513 0 
L 2938 0 
L 2938 2094 
Q 2938 2591 2744 2837 
Q 2550 3084 2163 3084 
Q 1697 3084 1428 2787 
Q 1159 2491 1159 1978 
L 1159 0 
L 581 0 
L 581 4863 
L 1159 4863 
L 1159 2956 
Q 1366 3272 1645 3428 
Q 1925 3584 2291 3584 
Q 2894 3584 3203 3211 
Q 3513 2838 3513 2113 
z
" transform="scale(0.015625)"/>
     </defs>
     <use xlink:href="#DejaVuSans-46"/>
     <use xlink:href="#DejaVuSans-72" x="50.269531"/>
     <use xlink:href="#DejaVuSans-65" x="89.132812"/>
     <use xlink:href="#DejaVuSans-6e" x="150.65625"/>
     <use xlink:href="#DejaVuSans-63" x="214.035156"/>
     <use xlink:href="#DejaVuSans-68" x="269.015625"/>
    </g>
   </g>
   <g id="legend_2">
    <g id="patch_35">
     <path d="M 619.119896 63.51625 
L 710.493333 63.51625 
Q 712.493333 63.51625 712.493333 61.51625 
L 712.493333 33.16 
Q 712.493333 31.16 710.493333 31.16 
L 619.119896 31.16 
Q 617.119896 31.16 617.119896 33.16 
L 617.119896 61.51625 
Q 617.119896 63.51625 619.119896 63.51625 
z
" style="fill: #ffffff; opacity: 0.8; stroke: #cccccc; stroke-linejoin: miter"/>
    </g>
    <g id="patch_36">
     <path d="M 621.119896 42.758437 
L 641.119896 42.758437 
L 641.119896 35.758437 
L 621.119896 35.758437 
z
" style="fill: #1f77b4"/>
    </g>
    <g id="text_34">
     <!-- Annotator 1 -->
     <g transform="translate(649.119896 42.758437) scale(0.1 -0.1)">
      <use xlink:href="#DejaVuSans-41"/>
      <use xlink:href="#DejaVuSans-6e" x="68.408203"/>
      <use xlink:href="#DejaVuSans-6e" x="131.787109"/>
      <use xlink:href="#DejaVuSans-6f" x="195.166016"/>
      <use xlink:href="#DejaVuSans-74" x="256.347656"/>
      <use xlink:href="#DejaVuSans-61" x="295.556641"/>
      <use xlink:href="#DejaVuSans-74" x="356.835938"/>
      <use xlink:href="#DejaVuSans-6f" x="396.044922"/>
      <use xlink:href="#DejaVuSans-72" x="457.226562"/>
      <use xlink:href="#DejaVuSans-20" x="498.339844"/>
      <use xlink:href="#DejaVuSans-31" x="530.126953"/>
     </g>
    </g>
    <g id="patch_37">
     <path d="M 621.119896 57.436562 
L 641.119896 57.436562 
L 641.119896 50.436562 
L 621.119896 50.436562 
z
" style="fill: #ff7f0e"/>
    </g>
    <g id="text_35">
     <!-- Annotator 2 -->
     <g transform="translate(649.119896 57.436562) scale(0.1 -0.1)">
      <use xlink:href="#DejaVuSans-41"/>
      <use xlink:href="#DejaVuSans-6e" x="68.408203"/>
      <use xlink:href="#DejaVuSans-6e" x="131.787109"/>
      <use xlink:href="#DejaVuSans-6f" x="195.166016"/>
      <use xlink:href="#DejaVuSans-74" x="256.347656"/>
      <use xlink:href="#DejaVuSans-61" x="295.556641"/>
      <use xlink:href="#DejaVuSans-74" x="356.835938"/>
      <use xlink:href="#DejaVuSans-6f" x="396.044922"/>
      <use xlink:href="#DejaVuSans-72" x="457.226562"/>
      <use xlink:href="#DejaVuSans-20" x="498.339844"/>
      <use xlink:href="#DejaVuSans-32" x="530.126953"/>
     </g>
    </g>
   </g>
  </g>
  <g id="axes_3">
   <g id="patch_38">
    <path d="M 748.073333 318.04 
L 1069.2 318.04 
L 1069.2 26.16 
L 748.073333 26.16 
z
" style="fill: #ffffff"/>
   </g>
   <g id="patch_39">
    <path d="M 762.67 318.04 
L 784.409716 318.04 
L 784.409716 242.910013 
L 762.67 242.910013 
z
" clip-path="url(#pea9e5be314)" style="fill: #1f77b4"/>
   </g>
   <g id="patch_40">
    <path d="M 824.783475 318.04 
L 846.523191 318.04 
L 846.523191 145.24103 
L 824.783475 145.24103 
z
" clip-path="url(#pea9e5be314)" style="fill: #1f77b4"/>
   </g>
   <g id="patch_41">
    <path d="M 886.89695 318.04 
L 908.636667 318.04 
L 908.636667 145.24103 
L 886.89695 145.24103 
z
" clip-path="url(#pea9e5be314)" style="fill: #1f77b4"/>
   </g>
   <g id="patch_42">
    <path d="M 949.010426 318.04 
L 970.750142 318.04 
L 970.750142 92.650039 
L 949.010426 92.650039 
z
" clip-path="url(#pea9e5be314)" style="fill: #1f77b4"/>
   </g>
   <g id="patch_43">
    <path d="M 1011.123901 318.04 
L 1032.863617 318.04 
L 1032.863617 182.806023 
L 1011.123901 182.806023 
z
" clip-path="url(#pea9e5be314)" style="fill: #1f77b4"/>
   </g>
   <g id="patch_44">
    <path d="M 784.409716 318.04 
L 806.149433 318.04 
L 806.149433 175.293024 
L 784.409716 175.293024 
z
" clip-path="url(#pea9e5be314)" style="fill: #ff7f0e"/>
   </g>
   <g id="patch_45">
    <path d="M 846.523191 318.04 
L 868.262908 318.04 
L 868.262908 40.059048 
L 846.523191 40.059048 
z
" clip-path="url(#pea9e5be314)" style="fill: #ff7f0e"/>
   </g>
   <g id="patch_46">
    <path d="M 908.636667 318.04 
L 930.376383 318.04 
L 930.376383 137.728031 
L 908.636667 137.728031 
z
" clip-path="url(#pea9e5be314)" style="fill: #ff7f0e"/>
   </g>
   <g id="patch_47">
    <path d="M 970.750142 318.04 
L 992.489858 318.04 
L 992.489858 190.319022 
L 970.750142 190.319022 
z
" clip-path="url(#pea9e5be314)" style="fill: #ff7f0e"/>
   </g>
   <g id="patch_48">
    <path d="M 1032.863617 318.04 
L 1054.603333 318.04 
L 1054.603333 220.371017 
L 1032.863617 220.371017 
z
" clip-path="url(#pea9e5be314)" style="fill: #ff7f0e"/>
   </g>
   <g id="matplotlib.axis_5">
    <g id="xtick_11">
     <g id="line2d_28">
      <g>
       <use xlink:href="#m0dd4cd7492" x="784.409716" y="318.04" style="stroke: #000000; stroke-width: 0.8"/>
      </g>
     </g>
     <g id="text_36">
      <!-- 1 -->
      <g transform="translate(781.228466 332.638438) scale(0.1 -0.1)">
       <use xlink:href="#DejaVuSans-31"/>
      </g>
     </g>
    </g>
    <g id="xtick_12">
     <g id="line2d_29">
      <g>
       <use xlink:href="#m0dd4cd7492" x="846.523191" y="318.04" style="stroke: #000000; stroke-width: 0.8"/>
      </g>
     </g>
     <g id="text_37">
      <!-- 2 -->
      <g transform="translate(843.341941 332.638438) scale(0.1 -0.1)">
       <use xlink:href="#DejaVuSans-32"/>
      </g>
     </g>
    </g>
    <g id="xtick_13">
     <g id="line2d_30">
      <g>
       <use xlink:href="#m0dd4cd7492" x="908.636667" y="318.04" style="stroke: #000000; stroke-width: 0.8"/>
      </g>
     </g>
     <g id="text_38">
      <!-- 3 -->
      <g transform="translate(905.455417 332.638438) scale(0.1 -0.1)">
       <use xlink:href="#DejaVuSans-33"/>
      </g>
     </g>
    </g>
    <g id="xtick_14">
     <g id="line2d_31">
      <g>
       <use xlink:href="#m0dd4cd7492" x="970.750142" y="318.04" style="stroke: #000000; stroke-width: 0.8"/>
      </g>
     </g>
     <g id="text_39">
      <!-- 4 -->
      <g transform="translate(967.568892 332.638438) scale(0.1 -0.1)">
       <use xlink:href="#DejaVuSans-34"/>
      </g>
     </g>
    </g>
    <g id="xtick_15">
     <g id="line2d_32">
      <g>
       <use xlink:href="#m0dd4cd7492" x="1032.863617" y="318.04" style="stroke: #000000; stroke-width: 0.8"/>
      </g>
     </g>
     <g id="text_40">
      <!-- 5 -->
      <g transform="translate(1029.682367 332.638438) scale(0.1 -0.1)">
       <use xlink:href="#DejaVuSans-35"/>
      </g>
     </g>
    </g>
   </g>
   <g id="matplotlib.axis_6">
    <g id="ytick_18">
     <g id="line2d_33">
      <g>
       <use xlink:href="#me6f564d7d5" x="748.073333" y="318.04" style="stroke: #000000; stroke-width: 0.8"/>
      </g>
     </g>
     <g id="text_41">
      <!-- 0 -->
      <g transform="translate(734.710833 321.839219) scale(0.1 -0.1)">
       <use xlink:href="#DejaVuSans-30"/>
      </g>
     </g>
    </g>
    <g id="ytick_19">
     <g id="line2d_34">
      <g>
       <use xlink:href="#me6f564d7d5" x="748.073333" y="280.475006" style="stroke: #000000; stroke-width: 0.8"/>
      </g>
     </g>
     <g id="text_42">
      <!-- 5 -->
      <g transform="translate(734.710833 284.274225) scale(0.1 -0.1)">
       <use xlink:href="#DejaVuSans-35"/>
      </g>
     </g>
    </g>
    <g id="ytick_20">
     <g id="line2d_35">
      <g>
       <use xlink:href="#me6f564d7d5" x="748.073333" y="242.910013" style="stroke: #000000; stroke-width: 0.8"/>
      </g>
     </g>
     <g id="text_43">
      <!-- 10 -->
      <g transform="translate(728.348333 246.709232) scale(0.1 -0.1)">
       <use xlink:href="#DejaVuSans-31"/>
       <use xlink:href="#DejaVuSans-30" x="63.623047"/>
      </g>
     </g>
    </g>
    <g id="ytick_21">
     <g id="line2d_36">
      <g>
       <use xlink:href="#me6f564d7d5" x="748.073333" y="205.345019" style="stroke: #000000; stroke-width: 0.8"/>
      </g>
     </g>
     <g id="text_44">
      <!-- 15 -->
      <g transform="translate(728.348333 209.144238) scale(0.1 -0.1)">
       <use xlink:href="#DejaVuSans-31"/>
       <use xlink:href="#DejaVuSans-35" x="63.623047"/>
      </g>
     </g>
    </g>
    <g id="ytick_22">
     <g id="line2d_37">
      <g>
       <use xlink:href="#me6f564d7d5" x="748.073333" y="167.780026" style="stroke: #000000; stroke-width: 0.8"/>
      </g>
     </g>
     <g id="text_45">
      <!-- 20 -->
      <g transform="translate(728.348333 171.579244) scale(0.1 -0.1)">
       <use xlink:href="#DejaVuSans-32"/>
       <use xlink:href="#DejaVuSans-30" x="63.623047"/>
      </g>
     </g>
    </g>
    <g id="ytick_23">
     <g id="line2d_38">
      <g>
       <use xlink:href="#me6f564d7d5" x="748.073333" y="130.215032" style="stroke: #000000; stroke-width: 0.8"/>
      </g>
     </g>
     <g id="text_46">
      <!-- 25 -->
      <g transform="translate(728.348333 134.014251) scale(0.1 -0.1)">
       <use xlink:href="#DejaVuSans-32"/>
       <use xlink:href="#DejaVuSans-35" x="63.623047"/>
      </g>
     </g>
    </g>
    <g id="ytick_24">
     <g id="line2d_39">
      <g>
       <use xlink:href="#me6f564d7d5" x="748.073333" y="92.650039" style="stroke: #000000; stroke-width: 0.8"/>
      </g>
     </g>
     <g id="text_47">
      <!-- 30 -->
      <g transform="translate(728.348333 96.449257) scale(0.1 -0.1)">
       <use xlink:href="#DejaVuSans-33"/>
       <use xlink:href="#DejaVuSans-30" x="63.623047"/>
      </g>
     </g>
    </g>
    <g id="ytick_25">
     <g id="line2d_40">
      <g>
       <use xlink:href="#me6f564d7d5" x="748.073333" y="55.085045" style="stroke: #000000; stroke-width: 0.8"/>
      </g>
     </g>
     <g id="text_48">
      <!-- 35 -->
      <g transform="translate(728.348333 58.884264) scale(0.1 -0.1)">
       <use xlink:href="#DejaVuSans-33"/>
       <use xlink:href="#DejaVuSans-35" x="63.623047"/>
      </g>
     </g>
    </g>
   </g>
   <g id="patch_49">
    <path d="M 748.073333 318.04 
L 748.073333 26.16 
" style="fill: none; stroke: #000000; stroke-width: 0.8; stroke-linejoin: miter; stroke-linecap: square"/>
   </g>
   <g id="patch_50">
    <path d="M 1069.2 318.04 
L 1069.2 26.16 
" style="fill: none; stroke: #000000; stroke-width: 0.8; stroke-linejoin: miter; stroke-linecap: square"/>
   </g>
   <g id="patch_51">
    <path d="M 748.073333 318.04 
L 1069.2 318.04 
" style="fill: none; stroke: #000000; stroke-width: 0.8; stroke-linejoin: miter; stroke-linecap: square"/>
   </g>
   <g id="patch_52">
    <path d="M 748.073333 26.16 
L 1069.2 26.16 
" style="fill: none; stroke: #000000; stroke-width: 0.8; stroke-linejoin: miter; stroke-linecap: square"/>
   </g>
   <g id="text_49">
    <!-- Italian -->
    <g transform="translate(890.024479 20.16) scale(0.12 -0.12)">
     <defs>
      <path id="DejaVuSans-49" d="M 628 4666 
L 1259 4666 
L 1259 0 
L 628 0 
L 628 4666 
z
" transform="scale(0.015625)"/>
     </defs>
     <use xlink:href="#DejaVuSans-49"/>
     <use xlink:href="#DejaVuSans-74" x="29.492188"/>
     <use xlink:href="#DejaVuSans-61" x="68.701172"/>
     <use xlink:href="#DejaVuSans-6c" x="129.980469"/>
     <use xlink:href="#DejaVuSans-69" x="157.763672"/>
     <use xlink:href="#DejaVuSans-61" x="185.546875"/>
     <use xlink:href="#DejaVuSans-6e" x="246.826172"/>
    </g>
   </g>
   <g id="legend_3">
    <g id="patch_53">
     <path d="M 970.826563 63.51625 
L 1062.2 63.51625 
Q 1064.2 63.51625 1064.2 61.51625 
L 1064.2 33.16 
Q 1064.2 31.16 1062.2 31.16 
L 970.826563 31.16 
Q 968.826563 31.16 968.826563 33.16 
L 968.826563 61.51625 
Q 968.826563 63.51625 970.826563 63.51625 
z
" style="fill: #ffffff; opacity: 0.8; stroke: #cccccc; stroke-linejoin: miter"/>
    </g>
    <g id="patch_54">
     <path d="M 972.826563 42.758437 
L 992.826563 42.758437 
L 992.826563 35.758437 
L 972.826563 35.758437 
z
" style="fill: #1f77b4"/>
    </g>
    <g id="text_50">
     <!-- Annotator 1 -->
     <g transform="translate(1000.826563 42.758437) scale(0.1 -0.1)">
      <use xlink:href="#DejaVuSans-41"/>
      <use xlink:href="#DejaVuSans-6e" x="68.408203"/>
      <use xlink:href="#DejaVuSans-6e" x="131.787109"/>
      <use xlink:href="#DejaVuSans-6f" x="195.166016"/>
      <use xlink:href="#DejaVuSans-74" x="256.347656"/>
      <use xlink:href="#DejaVuSans-61" x="295.556641"/>
      <use xlink:href="#DejaVuSans-74" x="356.835938"/>
      <use xlink:href="#DejaVuSans-6f" x="396.044922"/>
      <use xlink:href="#DejaVuSans-72" x="457.226562"/>
      <use xlink:href="#DejaVuSans-20" x="498.339844"/>
      <use xlink:href="#DejaVuSans-31" x="530.126953"/>
     </g>
    </g>
    <g id="patch_55">
     <path d="M 972.826563 57.436562 
L 992.826563 57.436562 
L 992.826563 50.436562 
L 972.826563 50.436562 
z
" style="fill: #ff7f0e"/>
    </g>
    <g id="text_51">
     <!-- Annotator 2 -->
     <g transform="translate(1000.826563 57.436562) scale(0.1 -0.1)">
      <use xlink:href="#DejaVuSans-41"/>
      <use xlink:href="#DejaVuSans-6e" x="68.408203"/>
      <use xlink:href="#DejaVuSans-6e" x="131.787109"/>
      <use xlink:href="#DejaVuSans-6f" x="195.166016"/>
      <use xlink:href="#DejaVuSans-74" x="256.347656"/>
      <use xlink:href="#DejaVuSans-61" x="295.556641"/>
      <use xlink:href="#DejaVuSans-74" x="356.835938"/>
      <use xlink:href="#DejaVuSans-6f" x="396.044922"/>
      <use xlink:href="#DejaVuSans-72" x="457.226562"/>
      <use xlink:href="#DejaVuSans-20" x="498.339844"/>
      <use xlink:href="#DejaVuSans-32" x="530.126953"/>
     </g>
    </g>
   </g>
  </g>
 </g>
 <defs>
  <clipPath id="p1feefc2ffa">
   <rect x="44.66" y="26.16" width="321.126667" height="291.88"/>
  </clipPath>
  <clipPath id="p75259f2151">
   <rect x="396.366667" y="26.16" width="321.126667" height="291.88"/>
  </clipPath>
  <clipPath id="pea9e5be314">
   <rect x="748.073333" y="26.16" width="321.126667" height="291.88"/>
  </clipPath>
 </defs>
</svg>
